<?xml version="1.0" encoding="utf-8"?>
<!-- Generator: Adobe Illustrator 23.1.1, SVG Export Plug-In . SVG Version: 6.00 Build 0)  -->
<svg version="1.1" id="Capa_1" xmlns="http://www.w3.org/2000/svg" xmlns:xlink="http://www.w3.org/1999/xlink" x="0px" y="0px"
	 viewBox="0 0 560 230" style="enable-background:new 0 0 560 230;" xml:space="preserve">
<style type="text/css">
	.st0{fill:#FFFFFF;}
	.st1{fill:#005299;}
	.st2{fill:#B90B13;}
	.st3{fill-rule:evenodd;clip-rule:evenodd;fill:#B90B13;}
</style>
<g>
	<g>
		<g>
			<g>
				<polygon class="st0" points="4.71,155.85 282.51,226.16 554.54,155.88 554.54,70.91 282.51,2.93 4.54,70.89 				"/>
			</g>
			<g>
				<polygon class="st1" points="8.65,74.1 282.51,7.09 550.44,74.1 550.44,152.69 282.51,221.84 8.65,152.67 				"/>
			</g>
			<g>
				<polygon class="st0" points="58.85,83.44 282.51,51.67 500.06,83.7 500.06,143.15 282.51,177.27 58.85,143.15 				"/>
			</g>
			<g>
				<path class="st2" d="M359.24,144.68c-18.75-0.48-21.44-15.68-21.48-15.84l-0.01-0.22h12.27c0.62,0,0.66,0.33,0.71,0.68
					c0.02,0.3,0.08,0.69,0.44,1.21c0.89,1.07,2.69,3.21,8.27,3.53c0.25,0.02,0.47,0.02,0.65,0.02c5.21,0,9.39-3.58,9.87-5.97
					c0.6-2.28-0.23-4.53-2.24-6.04c-1.38-0.95-4.42-1.49-7.68-2.08c-1.7-0.3-3.49-0.64-5.13-1.02c-4.69-0.98-7.88-2.94-11.25-5.02
					l-0.18-0.13c-4.58-3.05-5.55-6.88-6.22-10.88c-0.31-2.06,0.36-8.25,4.64-13.29c3.88-4.61,9.49-6.92,16.69-6.92h0.26
					c18.56,0,21.53,17.65,21.57,17.83l0.06,0.25h-11.87v-0.21c0,0-0.02-3.21-1.89-4.62c-1.63-1.81-4.52-2.96-7.82-3.1
					c-3.69,0-5.27,1.07-6.95,2.43c-1.93,1.61-2.56,4.06-2.56,4.96c-0.19,1.07,0.08,4.23,3.37,6.07c2.28,1.39,3.74,1.64,5.29,1.89
					c0.66,0.12,1.32,0.21,2.09,0.41c13.72,1.73,20.77,7.31,21.44,17.03c0.18,1.92-0.82,7.71-5.09,12.42
					c-4,4.39-9.59,6.62-16.64,6.62H359.24z"/>
				<path class="st2" d="M316.08,144.01v-38.65c0-0.09-1.6-12.67-13.98-12.83c-12.22,0-13.65,12.57-13.67,12.69v38.79h-11.3
					l-0.15-39.51c-0.61-2.75-3.46-11.84-14.01-11.97c-12.23,0-13.65,12.57-13.67,12.69v38.79h-11.47v-40.13
					c0.02-0.22,1.96-21.33,25.46-21.33c8.25,0,14.73,2.74,19.21,8.16c4.54-5.42,11.18-8.16,19.75-8.16
					c23.5,0,25.12,22.41,25.13,22.65v38.82H316.08z"/>
				<path class="st3" d="M215.5,144.2v-11.62c0-1.31-1.1-3.09-3.14-3.09l-0.27,0.01h-14.88c-0.11-0.01-0.19-0.01-0.31-0.01
					c-1.88,0-2.66,1.6-2.8,3.12v11.58h-11.3v-11.94c-0.61-2.28-1.35-2.93-3.42-2.93h-35.65c-0.89,0-1.71,0.41-2.3,1.14
					c-0.55,0.68-0.79,1.52-0.64,2.24v11.49h-11.63v-12.09c-0.21-2.09-1.28-3.11-3.29-3.11h-8.63v-9h8.63c1.14,0,3.29-1.12,3.29-3.25
					v-11.4c0.01-0.25,1.71-22.82,22.82-22.82c21.08,0.16,21.82,19.64,21.82,19.83v0.23h-10.44c-0.45,0-0.67-0.6-1.05-1.6
					c-1.03-2.61-2.95-7.47-10.34-7.47c-9.76,0-11.19,10.42-11.19,10.53v12.86c0,0.96,1.02,2.44,3.3,2.78h35.28
					c2.26,0,3.29-1.97,3.42-3.3v-11.03c0-0.09-0.43-10.15,5.87-16.83c3.69-3.94,8.98-5.93,15.61-5.99h0.26
					c22.32,0,22.59,22.59,22.59,22.82v38.84H215.5z M204.8,93.69c-9.77,0-10.5,10.25-10.5,10.25v13.14
					c0.15,1.73,1.75,2.78,3.26,2.93h14.69c1.42-0.31,3.08-1.44,3.26-3.12v-12.54C215.46,103.94,214.58,93.69,204.8,93.69z"/>
				<path class="st3" d="M424.43,144.01v-9.28c0-2.04-1.1-3.12-3.26-3.26c-1.57-0.09-3.29-0.15-5.23-0.15
					c-1.74,0-3.48,0.04-5.16,0.07c-1.67,0.05-3.31,0.08-4.95,0.08c-2.74,0.28-2.93,1.71-3.06,2.86l-0.04,0.26v9.41h-11.48v-38.82
					c-0.03,0.7,0.14-22.49,22.82-22.49c21.24,0,21.82,22.27,21.82,22.49v38.82H424.43z M413.24,93.18
					c-10.07,0-10.67,9.79-10.7,10.22v15.49c-0.08,0.68,0.18,1.43,0.69,2.05c0.59,0.7,1.45,1.15,2.41,1.21h15.52
					c1.31-0.19,2.98-0.97,3.26-3.61V103.4c0.06-0.33-0.33-3.78-2.75-6.63C419.63,94.4,416.8,93.18,413.24,93.18z"/>
			</g>
		</g>
	</g>
</g>
</svg>
