<?xml version="1.0" encoding="UTF-8" standalone="no"?><!DOCTYPE svg PUBLIC "-//W3C//DTD SVG 1.1//EN" "http://www.w3.org/Graphics/SVG/1.1/DTD/svg11.dtd"><svg width="100%" height="100%" viewBox="0 0 592 156" version="1.1" xmlns="http://www.w3.org/2000/svg" xmlns:xlink="http://www.w3.org/1999/xlink" xml:space="preserve" xmlns:serif="http://www.serif.com/" style="fill-rule:evenodd;clip-rule:evenodd;stroke-linejoin:round;stroke-miterlimit:2;"><rect id="logo-web" serif:id="logo web" x="0" y="0" width="591.312" height="155.804" style="fill:none;"/><clipPath id="_clip1"><rect x="0" y="0" width="591.312" height="155.804"/></clipPath><g clip-path="url(#_clip1)"><path d="M27.258,44.871l21.322,-34.425l-38.534,-0l17.212,34.425Z" style="fill:#fff;fill-rule:nonzero;"/><path d="M83.208,156.771l73.163,-146.326l-24.042,0l-48.675,97.35l-33.182,-61.178l-10.24,10.215l-4.666,4.655l47.642,95.284Z" style="fill:#fff;fill-rule:nonzero;"/><path d="M52.23,32.459l31.424,55.698l38.856,-77.712l-18.028,0l-21.613,43.226l-23.959,-43.226l-24.88,40.169l18.2,-18.155Z" style="fill:#e3051e;fill-rule:nonzero;"/><path d="M54.935,133.646l-26.675,0l0.312,-0.303l0,-52.424l-13.254,-26.508l0,91.815l45.907,0l-6.29,-12.58Z" style="fill:#e3051e;fill-rule:nonzero;"/><path d="M151.098,146.226l0,-91.814l-13.254,26.508l0,52.423l0.312,0.303l-26.676,0l-6.289,12.58l45.907,0Z" style="fill:#e3051e;fill-rule:nonzero;"/><path d="M185.046,136.268c-0.013,-2.172 -0.742,-3.091 -2.262,-3.083c-1.52,0.009 -2.223,0.935 -2.21,3.107l0.012,2.155c0.01,2.172 0.722,3.092 2.242,3.083c1.52,-0.008 2.24,-0.935 2.229,-3.107l-0.011,-2.155Zm-2.203,7.978c-2.987,0.017 -5.368,-1.582 -5.39,-5.782l-0.011,-2.155c-0.022,-4.2 2.342,-5.824 5.329,-5.84c2.986,-0.015 5.365,1.583 5.387,5.782l0.012,2.156c0.024,4.199 -2.34,5.824 -5.327,5.839" style="fill:#fff;fill-rule:nonzero;"/><path d="M197.41,139.84c-0.004,-0.869 -0.478,-1.609 -1.928,-1.602l-2.026,0.012l0.017,3.385c0.289,-0.001 1.229,0.012 1.483,0.011c1.866,-0.01 2.46,-0.593 2.456,-1.607l-0.002,-0.199Zm-0.102,-5.467c-0.006,-0.996 -0.641,-1.444 -2.506,-1.434c-0.289,0.001 -1.121,0.005 -1.375,0.025l0.016,3.131l2.029,-0.011c1.429,-0.006 1.841,-0.661 1.836,-1.439l0,-0.272Zm-2.572,9.808c-1.194,0.007 -2.608,-0.075 -3.313,-0.199c-0.727,-0.122 -0.998,-0.357 -1.003,-1.172l-0.059,-11.007c-0.004,-0.814 0.247,-1.069 0.954,-1.181c0.615,-0.093 2.079,-0.211 3.238,-0.217c3.423,-0.018 5.725,0.875 5.74,3.753l0.002,0.326c0.007,1.177 -0.548,2.194 -1.504,2.669c0.96,0.466 1.619,1.422 1.625,2.671l0,0.272c0.018,3.187 -2.548,4.069 -5.68,4.085" style="fill:#fff;fill-rule:nonzero;"/><path d="M209.345,134.562c-0.004,-1.104 -0.859,-1.607 -2.379,-1.599c-0.253,0.002 -1.194,0.043 -1.412,0.062l0.02,3.476c0.198,0.017 1.085,0.031 1.284,0.03c1.901,-0.01 2.496,-0.502 2.489,-1.733l-0.002,-0.236Zm3.311,9.36l-2.771,0.016c-0.199,0.001 -0.271,-0.18 -0.364,-0.361l-2.449,-4.567l-0.201,0.019c-0.379,0.002 -0.941,-0.031 -1.284,-0.03l0.024,4.599c0,0.199 -0.161,0.363 -0.361,0.364l-2.353,0.014c-0.198,0.001 -0.363,-0.163 -0.363,-0.362l-0.066,-12.147c-0.002,-0.615 0.249,-0.78 0.811,-0.873c0.83,-0.132 2.37,-0.248 3.673,-0.256c3.078,-0.015 5.455,1.003 5.472,4.207l0,0.236c0.011,1.919 -0.997,3.102 -2.315,3.634l2.76,5.09c0.038,0.073 0.058,0.144 0.058,0.2c0,0.126 -0.073,0.216 -0.271,0.217" style="fill:#fff;fill-rule:nonzero;"/><path d="M221.78,134.278c-0.004,-0.996 -0.295,-1.301 -1.309,-1.295l-1.321,0.006c-0.996,0.006 -1.302,0.315 -1.298,1.311l0.013,2.281l3.928,-0.022l-0.013,-2.281Zm2.769,9.581l-2.391,0.013c-0.198,0.001 -0.328,-0.162 -0.328,-0.361l-0.024,-4.399l-3.927,0.022l0.024,4.399c-0,0.199 -0.143,0.362 -0.344,0.363l-2.387,0.013c-0.201,0.002 -0.364,-0.16 -0.366,-0.36l-0.048,-9.232c-0.018,-3.26 1.951,-3.994 4.376,-4.007l1.322,-0.007c2.428,-0.013 4.386,0.7 4.403,3.958l0.049,9.233c0.002,0.2 -0.161,0.364 -0.359,0.365" style="fill:#fff;fill-rule:nonzero;"/><path d="M231.082,143.987c-1.43,0.008 -2.498,-0.148 -3.423,-0.38c-0.181,-0.053 -0.364,-0.161 -0.364,-0.359l-0.011,-1.774c-0,-0.254 0.143,-0.346 0.326,-0.347l0.053,-0c0.742,0.068 2.736,0.204 3.441,0.199c1.251,-0.006 1.61,-0.407 1.605,-1.277c-0.004,-0.525 -0.257,-0.812 -1.202,-1.368l-2.507,-1.472c-1.689,-0.986 -2.147,-2.124 -2.154,-3.446c-0.011,-1.991 1.104,-3.537 4.615,-3.555c1.321,-0.007 3.152,0.2 3.841,0.379c0.146,0.035 0.271,0.124 0.274,0.322l0.008,1.829c0.002,0.164 -0.07,0.309 -0.306,0.31l-0.035,-0c-0.509,-0.034 -2.608,-0.185 -3.84,-0.178c-1.03,0.005 -1.409,0.315 -1.407,0.966c0.004,0.507 0.24,0.741 1.22,1.262l2.324,1.236c1.888,1.004 2.456,2.196 2.463,3.662c0.011,1.918 -1.245,3.972 -4.921,3.991" style="fill:#fff;fill-rule:nonzero;"/><path d="M240.912,141.129l-1.716,4.064c-0.088,0.199 -0.141,0.363 -0.341,0.365l-1.593,0.007c-0.163,0.001 -0.308,-0.124 -0.31,-0.269c0,-0.037 0.017,-0.055 0.017,-0.091l1.137,-4.062c0.055,-0.217 0.16,-0.345 0.361,-0.346l2.207,-0.011c0.163,-0.001 0.273,0.089 0.273,0.215c0,0.037 -0.017,0.09 -0.035,0.128" style="fill:#fff;fill-rule:nonzero;"/><path d="M250.466,143.72l-2.428,0.013c-0.198,0.002 -0.325,-0.161 -0.325,-0.361l-0.069,-12.745c-0.002,-0.199 0.123,-0.344 0.322,-0.345l2.427,-0.013c0.198,-0.001 0.344,0.142 0.346,0.342l0.068,12.745c0,0.199 -0.143,0.363 -0.341,0.364" style="fill:#fff;fill-rule:nonzero;"/><path d="M263.464,143.651l-2.425,0.013c-0.2,0.002 -0.328,-0.161 -0.328,-0.361l-0.044,-8.074c-0.011,-2.028 -0.683,-2.514 -2.168,-2.505c-0.742,0.004 -1.557,0.044 -2.119,0.12l0.058,10.482c0,0.2 -0.144,0.364 -0.342,0.365l-2.407,0.012c-0.201,0.001 -0.347,-0.161 -0.347,-0.36l-0.064,-11.821c-0.004,-0.815 0.212,-1.016 0.917,-1.128c0.958,-0.15 3.022,-0.324 3.945,-0.329c3.513,-0.019 5.599,0.948 5.624,5.148l0.042,8.074c0.002,0.199 -0.144,0.363 -0.342,0.364" style="fill:#fff;fill-rule:nonzero;"/><path d="M275.245,132.815c-0.018,0 -0.038,0 -0.055,0.001c-0.87,-0.032 -2.227,-0.134 -3.767,-0.126c-1.467,0.008 -2.368,0.719 -2.355,3.091l0.013,2.263c0.014,2.499 1.157,3.072 2.045,3.068c0.506,-0.004 0.958,-0.025 1.392,-0.063l-0.022,-4.163c-0.002,-0.199 0.143,-0.363 0.341,-0.364l2.318,-0.013c0.198,-0.001 0.363,0.161 0.363,0.36l0.033,6.083c0.002,0.254 -0.088,0.362 -0.359,0.419c-0.976,0.205 -2.242,0.392 -4.053,0.402c-2.064,0.011 -5.165,-1.149 -5.19,-5.729l-0.013,-2.245c-0.024,-4.617 2.848,-5.791 5.474,-5.806c1.811,-0.01 3.114,0.256 3.784,0.396c0.183,0.036 0.308,0.108 0.311,0.271l0.009,1.918c0.002,0.2 -0.106,0.236 -0.269,0.237" style="fill:#fff;fill-rule:nonzero;"/><path d="M285.871,143.458c-0.632,0.094 -1.555,0.244 -3.509,0.255c-2.337,0.012 -4.404,-0.574 -4.421,-3.869l-0.033,-6.011c-0.017,-3.295 2.062,-3.885 4.397,-3.897c1.956,-0.012 2.861,0.128 3.496,0.216c0.253,0.035 0.361,0.125 0.363,0.36l0.009,1.683c0.002,0.2 -0.161,0.364 -0.359,0.365l-3.674,0.02c-0.853,0.004 -1.159,0.295 -1.153,1.237l0.009,1.646l4.688,-0.024c0.2,-0.001 0.363,0.161 0.363,0.36l0.011,1.721c-0,0.199 -0.163,0.363 -0.361,0.364l-4.69,0.024l0.011,1.919c0.005,0.942 0.315,1.23 1.165,1.226l3.675,-0.02c0.2,-0.001 0.363,0.161 0.366,0.359l0.008,1.684c-0,0.236 -0.108,0.345 -0.361,0.382" style="fill:#fff;fill-rule:nonzero;"/><path d="M298.634,143.463l-2.425,0.013c-0.2,-0 -0.328,-0.162 -0.328,-0.361l-0.044,-8.074c-0.012,-2.028 -0.683,-2.514 -2.168,-2.505c-0.743,0.003 -1.557,0.044 -2.119,0.12l0.057,10.482c-0,0.199 -0.143,0.363 -0.341,0.365l-2.408,0.012c-0.2,0.001 -0.346,-0.161 -0.346,-0.361l-0.064,-11.821c-0.004,-0.815 0.212,-1.015 0.917,-1.129c0.958,-0.148 3.022,-0.323 3.945,-0.328c3.513,-0.018 5.599,0.948 5.624,5.148l0.041,8.074c0.003,0.199 -0.143,0.364 -0.341,0.365" style="fill:#fff;fill-rule:nonzero;"/><path d="M304.262,143.432l-2.427,0.013c-0.198,0.002 -0.326,-0.16 -0.326,-0.36l-0.069,-12.745c-0.002,-0.2 0.124,-0.345 0.322,-0.346l2.427,-0.013c0.198,-0.001 0.344,0.143 0.346,0.343l0.069,12.745c-0,0.199 -0.144,0.362 -0.342,0.363" style="fill:#fff;fill-rule:nonzero;"/><path d="M314.996,143.302c-0.635,0.094 -1.555,0.245 -3.511,0.254c-2.335,0.014 -4.404,-0.572 -4.421,-3.868l-0.031,-6.01c-0.02,-3.295 2.062,-3.887 4.397,-3.898c1.953,-0.011 2.859,0.128 3.495,0.216c0.254,0.035 0.362,0.125 0.364,0.359l0.009,1.684c-0,0.2 -0.161,0.364 -0.36,0.365l-3.676,0.02c-0.85,0.004 -1.156,0.296 -1.152,1.238l0.009,1.646l4.69,-0.025c0.198,-0.001 0.361,0.161 0.363,0.36l0.009,1.721c0.002,0.199 -0.161,0.363 -0.361,0.364l-4.688,0.025l0.011,1.919c0.004,0.942 0.313,1.229 1.165,1.225l3.675,-0.02c0.198,-0.001 0.363,0.161 0.363,0.359l0.009,1.684c0.002,0.236 -0.106,0.344 -0.359,0.382" style="fill:#fff;fill-rule:nonzero;"/><path d="M324.446,133.946c-0.004,-1.104 -0.859,-1.607 -2.379,-1.6c-0.253,0.003 -1.194,0.043 -1.412,0.063l0.02,3.476c0.198,0.017 1.086,0.031 1.284,0.03c1.901,-0.01 2.496,-0.502 2.489,-1.734l-0.002,-0.235Zm3.311,9.36l-2.771,0.016c-0.199,-0 -0.271,-0.18 -0.364,-0.361l-2.449,-4.567l-0.201,0.019c-0.379,0.002 -0.941,-0.031 -1.284,-0.03l0.024,4.599c-0,0.199 -0.161,0.363 -0.361,0.364l-2.353,0.013c-0.198,-0 -0.363,-0.162 -0.363,-0.361l-0.066,-12.147c-0.002,-0.616 0.249,-0.78 0.811,-0.873c0.83,-0.132 2.37,-0.248 3.674,-0.256c3.077,-0.017 5.454,1.003 5.472,4.207l-0,0.236c0.01,1.919 -0.998,3.101 -2.316,3.634l2.76,5.09c0.038,0.073 0.058,0.144 0.058,0.2c-0,0.126 -0.073,0.216 -0.271,0.217" style="fill:#fff;fill-rule:nonzero;"/><path d="M332.697,143.28l-2.425,0.013c-0.2,0.001 -0.328,-0.161 -0.328,-0.361l-0.069,-12.745c-0.002,-0.199 0.124,-0.344 0.324,-0.345l2.425,-0.013c0.198,-0.001 0.344,0.142 0.346,0.341l0.068,12.745c0,0.2 -0.143,0.364 -0.341,0.365m1.72,-16.828l-2.198,2.221c-0.143,0.145 -0.196,0.217 -0.432,0.219l-1.938,0.01c-0.108,0.001 -0.163,-0.053 -0.163,-0.126c0,-0.054 0.017,-0.109 0.071,-0.181l1.673,-2.127c0.161,-0.2 0.234,-0.272 0.487,-0.275l2.373,-0.012c0.125,-0.001 0.198,0.053 0.198,0.126c0.002,0.036 -0.018,0.09 -0.071,0.145" style="fill:#fff;fill-rule:nonzero;"/><path d="M342.511,133.632c-0.004,-0.996 -0.297,-1.302 -1.311,-1.296l-1.321,0.007c-0.996,0.006 -1.302,0.314 -1.296,1.31l0.011,2.281l3.93,-0.021l-0.013,-2.281Zm2.767,9.581l-2.391,0.012c-0.198,0.001 -0.326,-0.161 -0.326,-0.36l-0.024,-4.399l-3.927,0.021l0.022,4.399c0.002,0.199 -0.143,0.363 -0.342,0.364l-2.39,0.012c-0.198,0.001 -0.363,-0.16 -0.363,-0.36l-0.051,-9.233c-0.017,-3.259 1.952,-3.992 4.379,-4.005l1.322,-0.008c2.425,-0.012 4.384,0.701 4.401,3.959l0.051,9.233c-0,0.2 -0.161,0.364 -0.361,0.365" style="fill:#fff;fill-rule:nonzero;"/><path d="M363,130.064l-3.868,7.823l0.027,4.888c0,0.199 -0.144,0.363 -0.342,0.365l-2.427,0.013c-0.199,0.001 -0.327,-0.162 -0.327,-0.361l-0.026,-4.889l-3.954,-7.781c-0.035,-0.055 -0.035,-0.109 -0.035,-0.162c-0.002,-0.146 0.106,-0.236 0.269,-0.237l2.661,-0.015c0.18,-0.001 0.273,0.143 0.346,0.306l2.253,4.876l2.183,-4.9c0.071,-0.163 0.178,-0.308 0.359,-0.309l2.643,-0.014c0.163,0 0.274,0.088 0.276,0.234c0,0.054 0,0.108 -0.038,0.163" style="fill:#fff;fill-rule:nonzero;"/><path d="M376.658,135.15c-0.013,-2.444 -1.066,-3.09 -2.696,-3.082c-0.451,0.003 -1.031,0.025 -1.284,0.043l0.043,8.456c0.256,0.016 0.835,0.031 1.287,0.028c1.63,-0.008 2.676,-0.665 2.663,-3.109l-0.013,-2.336Zm-2.637,8.071c-1.502,0.008 -3.114,-0.129 -3.857,-0.251c-0.343,-0.053 -0.526,-0.215 -0.528,-0.631l-0.064,-11.967c-0.002,-0.416 0.178,-0.58 0.522,-0.635c0.74,-0.132 2.353,-0.285 3.855,-0.293c3.604,-0.02 5.784,1.87 5.806,5.689l0.011,2.337c0.02,3.819 -2.141,5.731 -5.745,5.751" style="fill:#fff;fill-rule:nonzero;"/><path d="M389.843,142.901c-0.634,0.094 -1.557,0.245 -3.511,0.254c-2.337,0.013 -4.404,-0.573 -4.421,-3.869l-0.033,-6.01c-0.017,-3.295 2.062,-3.886 4.397,-3.897c1.956,-0.012 2.861,0.128 3.496,0.216c0.253,0.035 0.361,0.125 0.363,0.359l0.009,1.684c0.002,0.2 -0.161,0.364 -0.359,0.365l-3.674,0.02c-0.853,0.004 -1.159,0.295 -1.153,1.236l0.01,1.647l4.687,-0.024c0.2,-0.001 0.363,0.161 0.363,0.36l0.011,1.721c0,0.199 -0.163,0.363 -0.361,0.364l-4.69,0.024l0.012,1.919c0.004,0.942 0.314,1.23 1.165,1.226l3.676,-0.02c0.198,-0.001 0.361,0.161 0.364,0.359l0.008,1.684c0,0.236 -0.108,0.344 -0.359,0.382" style="fill:#fff;fill-rule:nonzero;"/><path d="M396.159,143.103c-1.43,0.008 -2.5,-0.15 -3.423,-0.38c-0.181,-0.053 -0.364,-0.161 -0.364,-0.359l-0.01,-1.774c-0,-0.254 0.143,-0.346 0.325,-0.347l0.054,-0c0.742,0.068 2.733,0.202 3.44,0.199c1.249,-0.006 1.608,-0.407 1.603,-1.277c-0.001,-0.525 -0.257,-0.813 -1.202,-1.369l-2.505,-1.471c-1.689,-0.987 -2.147,-2.124 -2.154,-3.446c-0.011,-1.991 1.104,-3.537 4.615,-3.555c1.322,-0.007 3.152,0.2 3.839,0.377c0.146,0.037 0.274,0.126 0.274,0.324l0.01,1.829c-0,0.164 -0.07,0.308 -0.306,0.309c-0,-0 -0.017,0.001 -0.037,0.001c-0.507,-0.034 -2.608,-0.186 -3.837,-0.18c-1.033,0.006 -1.412,0.317 -1.408,0.968c0.003,0.507 0.238,0.741 1.218,1.261l2.326,1.237c1.886,1.004 2.454,2.195 2.463,3.662c0.011,1.918 -1.247,3.971 -4.921,3.991" style="fill:#fff;fill-rule:nonzero;"/><path d="M410.062,133.27c-0.006,-0.996 -0.295,-1.301 -1.311,-1.295l-1.321,0.006c-0.996,0.006 -1.302,0.314 -1.295,1.31l0.01,2.281l3.928,-0.021l-0.011,-2.281Zm2.767,9.581l-2.39,0.013c-0.198,0.001 -0.326,-0.162 -0.329,-0.361l-0.022,-4.399l-3.927,0.021l0.022,4.398c0.002,0.2 -0.143,0.364 -0.341,0.365l-2.39,0.013c-0.199,0.001 -0.364,-0.161 -0.364,-0.361l-0.05,-9.233c-0.018,-3.259 1.951,-3.992 4.378,-4.005l1.322,-0.007c2.426,-0.013 4.384,0.699 4.401,3.958l0.051,9.233c0,0.2 -0.161,0.364 -0.361,0.365" style="fill:#fff;fill-rule:nonzero;"/><path d="M422.499,133.42c-0.007,-1.104 -0.859,-1.607 -2.381,-1.599c-0.254,0.002 -1.194,0.043 -1.412,0.062l0.02,3.476c0.198,0.017 1.085,0.031 1.284,0.03c1.901,-0.01 2.495,-0.502 2.489,-1.734l0,-0.235Zm3.309,9.36l-2.772,0.015c-0.198,0.001 -0.27,-0.179 -0.361,-0.36l-2.451,-4.567l-0.201,0.019c-0.379,0.002 -0.941,-0.031 -1.284,-0.029l0.024,4.598c0.002,0.199 -0.161,0.363 -0.361,0.364l-2.353,0.012c-0.198,0.002 -0.363,-0.161 -0.363,-0.36l-0.066,-12.147c-0.002,-0.615 0.249,-0.78 0.81,-0.873c0.833,-0.132 2.37,-0.248 3.674,-0.256c3.078,-0.016 5.455,1.003 5.472,4.207l0.002,0.236c0.009,1.919 -0.997,3.101 -2.317,3.634l2.76,5.09c0.038,0.073 0.057,0.144 0.057,0.2c0,0.126 -0.072,0.216 -0.27,0.217" style="fill:#fff;fill-rule:nonzero;"/><path d="M434.808,133.354c-0.007,-1.104 -0.859,-1.607 -2.381,-1.599c-0.254,0.002 -1.194,0.043 -1.412,0.063l0.02,3.476c0.198,0.016 1.085,0.031 1.284,0.029c1.901,-0.01 2.495,-0.502 2.489,-1.733l0,-0.236Zm3.308,9.361l-2.771,0.015c-0.198,-0 -0.271,-0.179 -0.361,-0.361l-2.452,-4.566l-0.2,0.018c-0.379,0.003 -0.941,-0.03 -1.284,-0.029l0.024,4.598c0.002,0.199 -0.161,0.363 -0.361,0.364l-2.353,0.014c-0.198,-0 -0.361,-0.162 -0.363,-0.362l-0.064,-12.147c-0.005,-0.615 0.249,-0.78 0.808,-0.873c0.833,-0.131 2.37,-0.248 3.674,-0.256c3.078,-0.016 5.455,1.004 5.472,4.208l0.002,0.235c0.009,1.919 -0.997,3.102 -2.317,3.634l2.76,5.09c0.038,0.073 0.057,0.145 0.057,0.2c0,0.127 -0.073,0.217 -0.271,0.218" style="fill:#fff;fill-rule:nonzero;"/><path d="M447.051,134.863c-0.011,-2.172 -0.74,-3.091 -2.26,-3.083c-1.522,0.009 -2.222,0.935 -2.212,3.107l0.014,2.155c0.011,2.173 0.722,3.092 2.242,3.083c1.52,-0.008 2.24,-0.935 2.229,-3.107l-0.013,-2.155Zm-2.201,7.978c-2.986,0.017 -5.368,-1.582 -5.39,-5.782l-0.013,-2.155c-0.022,-4.2 2.342,-5.823 5.329,-5.84c2.986,-0.015 5.368,1.583 5.39,5.782l0.011,2.156c0.022,4.199 -2.339,5.824 -5.327,5.839" style="fill:#fff;fill-rule:nonzero;"/><path d="M459.801,142.526c-0.597,0.129 -1.989,0.246 -2.949,0.251c-2.335,0.012 -4.421,-0.574 -4.439,-3.869l-0.049,-9.36c-0.001,-0.199 0.162,-0.362 0.36,-0.363l2.372,-0.013c0.198,-0.001 0.361,0.161 0.364,0.36l0.048,9.36c0.006,0.941 0.315,1.23 1.165,1.225l3.115,-0.016c0.198,-0.001 0.364,0.161 0.364,0.359l0.008,1.684c0.002,0.236 -0.106,0.326 -0.359,0.382" style="fill:#fff;fill-rule:nonzero;"/><path d="M469.196,142.476c-0.597,0.13 -1.989,0.247 -2.95,0.251c-2.335,0.014 -4.421,-0.572 -4.438,-3.868l-0.049,-9.359c-0.002,-0.2 0.161,-0.364 0.359,-0.365l2.373,-0.013c0.198,-0.001 0.361,0.162 0.363,0.361l0.049,9.36c0.006,0.942 0.314,1.229 1.165,1.224l3.115,-0.016c0.198,-0.001 0.363,0.161 0.363,0.359l0.009,1.684c0.002,0.236 -0.106,0.327 -0.359,0.382" style="fill:#fff;fill-rule:nonzero;"/><path d="M477.931,134.698c-0.011,-2.172 -0.742,-3.09 -2.262,-3.083c-1.52,0.008 -2.22,0.936 -2.21,3.107l0.012,2.156c0.011,2.172 0.722,3.09 2.244,3.083c1.52,-0.008 2.238,-0.935 2.227,-3.108l-0.011,-2.155Zm-2.203,7.979c-2.986,0.016 -5.368,-1.583 -5.39,-5.783l-0.011,-2.155c-0.022,-4.2 2.342,-5.823 5.329,-5.84c2.986,-0.016 5.366,1.583 5.388,5.782l0.013,2.156c0.022,4.199 -2.342,5.824 -5.329,5.84" style="fill:#fff;fill-rule:nonzero;"/><path d="M495.875,142.333c-0.634,0.094 -1.555,0.245 -3.511,0.254c-2.335,0.013 -4.404,-0.573 -4.421,-3.869l-0.031,-6.009c-0.017,-3.295 2.062,-3.887 4.397,-3.898c1.954,-0.012 2.861,0.128 3.493,0.216c0.256,0.035 0.364,0.125 0.366,0.359l0.009,1.684c0,0.2 -0.161,0.364 -0.362,0.365l-3.674,0.02c-0.85,0.004 -1.156,0.296 -1.152,1.238l0.009,1.646l4.69,-0.025c0.198,-0.001 0.363,0.161 0.363,0.36l0.009,1.721c0.002,0.199 -0.161,0.363 -0.359,0.364l-4.69,0.025l0.011,1.919c0.005,0.942 0.313,1.229 1.165,1.225l3.675,-0.02c0.198,-0.001 0.363,0.161 0.363,0.359l0.009,1.684c0.002,0.236 -0.106,0.345 -0.359,0.382" style="fill:#fff;fill-rule:nonzero;"/><path d="M505.885,142.279c-0.597,0.13 -1.989,0.247 -2.949,0.252c-2.335,0.012 -4.422,-0.574 -4.439,-3.869l-0.049,-9.36c-0.001,-0.199 0.161,-0.363 0.359,-0.364l2.373,-0.012c0.198,-0.002 0.361,0.161 0.363,0.36l0.049,9.359c0.006,0.942 0.315,1.231 1.165,1.225l3.115,-0.016c0.2,-0.001 0.363,0.161 0.363,0.36l0.009,1.684c0.002,0.235 -0.106,0.326 -0.359,0.381" style="fill:#fff;fill-rule:nonzero;"/><path d="M514.828,125.485l-2.198,2.22c-0.144,0.146 -0.198,0.218 -0.434,0.219l-1.937,0.012c-0.11,-0 -0.162,-0.055 -0.162,-0.127c-0,-0.054 0.017,-0.109 0.072,-0.181l1.672,-2.126c0.161,-0.201 0.234,-0.274 0.487,-0.275l2.37,-0.013c0.128,-0.001 0.2,0.053 0.2,0.125c-0,0.037 -0.017,0.091 -0.07,0.146m0.65,16.743c-0.635,0.094 -1.555,0.243 -3.511,0.255c-2.335,0.012 -4.402,-0.574 -4.419,-3.87l-0.033,-6.01c-0.018,-3.295 2.059,-3.886 4.396,-3.898c1.954,-0.011 2.862,0.129 3.496,0.218c0.254,0.034 0.361,0.124 0.364,0.358l0.009,1.684c-0,0.2 -0.161,0.364 -0.36,0.365l-3.676,0.02c-0.85,0.004 -1.159,0.295 -1.152,1.237l0.009,1.646l4.689,-0.025c0.199,-0.001 0.362,0.162 0.364,0.361l0.009,1.721c-0,0.199 -0.161,0.362 -0.359,0.363l-4.69,0.025l0.009,1.919c0.006,0.942 0.315,1.23 1.165,1.226l3.677,-0.02c0.198,-0.001 0.363,0.161 0.363,0.359l0.009,1.684c0.002,0.236 -0.106,0.344 -0.359,0.382" style="fill:#fff;fill-rule:nonzero;"/><path d="M525.866,142.099c-0.381,0.13 -1.428,0.316 -2.696,0.323c-2.752,0.015 -5.367,-1.42 -5.388,-5.729l-0.014,-2.281c-0.022,-4.308 2.576,-5.752 5.327,-5.768c1.269,-0.006 2.319,0.169 2.7,0.293c0.254,0.072 0.399,0.144 0.401,0.397l0.009,1.756c0.002,0.217 -0.108,0.363 -0.341,0.364l-0.056,0c-0.687,-0.05 -1.682,-0.135 -2.678,-0.13c-1.251,0.007 -2.244,0.664 -2.231,3.072l0.013,2.281c0.013,2.407 1.011,3.054 2.262,3.047c0.996,-0.005 1.991,-0.101 2.679,-0.159l0.055,0c0.233,-0.001 0.343,0.143 0.346,0.36l0.008,1.756c0.002,0.254 -0.143,0.345 -0.396,0.418" style="fill:#fff;fill-rule:nonzero;"/><path d="M536.741,131.288l-2.932,0.015l0.057,10.536c0,0.2 -0.163,0.364 -0.361,0.365l-2.372,0.012c-0.201,0.001 -0.364,-0.161 -0.364,-0.36l-0.057,-10.536l-2.95,0.016c-0.2,0.001 -0.363,-0.144 -0.365,-0.343l-0.009,-1.865c-0.002,-0.199 0.161,-0.343 0.361,-0.344l8.979,-0.049c0.2,-0.001 0.381,0.142 0.383,0.342l0.009,1.864c0.002,0.2 -0.179,0.346 -0.379,0.347" style="fill:#fff;fill-rule:nonzero;"/><path d="M545.71,132.759c-0.006,-1.104 -0.859,-1.607 -2.379,-1.598c-0.253,0.001 -1.196,0.043 -1.412,0.063l0.018,3.476c0.198,0.017 1.086,0.03 1.284,0.028c1.901,-0.01 2.496,-0.502 2.489,-1.733l0,-0.236Zm3.309,9.361l-2.771,0.015c-0.199,0.001 -0.271,-0.179 -0.362,-0.36l-2.453,-4.567l-0.199,0.018c-0.381,0.003 -0.94,-0.03 -1.284,-0.028l0.027,4.598c0,0.199 -0.163,0.362 -0.364,0.363l-2.352,0.014c-0.201,0.001 -0.364,-0.161 -0.364,-0.36l-0.066,-12.148c-0.002,-0.615 0.249,-0.781 0.811,-0.873c0.832,-0.131 2.37,-0.249 3.674,-0.256c3.077,-0.016 5.454,1.003 5.472,4.207l0,0.235c0.01,1.919 -0.996,3.102 -2.316,3.635l2.76,5.089c0.04,0.073 0.058,0.145 0.058,0.2c0,0.127 -0.073,0.217 -0.271,0.218" style="fill:#fff;fill-rule:nonzero;"/><path d="M553.96,142.094l-2.427,0.013c-0.198,0.001 -0.326,-0.16 -0.326,-0.36l-0.069,-12.745c-0.002,-0.2 0.126,-0.345 0.324,-0.346l2.428,-0.013c0.198,-0.001 0.343,0.143 0.345,0.342l0.069,12.745c-0,0.2 -0.146,0.363 -0.344,0.364" style="fill:#fff;fill-rule:nonzero;"/><path d="M564.584,141.892c-0.381,0.13 -1.427,0.316 -2.696,0.323c-2.751,0.014 -5.366,-1.42 -5.388,-5.729l-0.013,-2.281c-0.023,-4.308 2.575,-5.753 5.326,-5.768c1.269,-0.006 2.319,0.169 2.701,0.293c0.253,0.071 0.398,0.143 0.401,0.397l0.008,1.756c0.002,0.217 -0.108,0.362 -0.341,0.363c-0.02,0.001 -0.038,0.001 -0.055,0.001c-0.688,-0.05 -1.683,-0.135 -2.679,-0.13c-1.251,0.007 -2.244,0.664 -2.231,3.072l0.013,2.281c0.013,2.407 1.011,3.054 2.262,3.047c0.996,-0.005 1.991,-0.101 2.679,-0.159c0.017,0 0.035,0 0.055,-0.001c0.233,-0.002 0.343,0.144 0.346,0.361l0.008,1.756c0.002,0.254 -0.143,0.344 -0.396,0.418" style="fill:#fff;fill-rule:nonzero;"/><path d="M573.847,134.184c-0.011,-2.172 -0.738,-3.09 -2.26,-3.083c-1.52,0.009 -2.223,0.935 -2.212,3.107l0.014,2.156c0.01,2.172 0.722,3.091 2.242,3.082c1.522,-0.008 2.24,-0.935 2.229,-3.107l-0.013,-2.155Zm-2.201,7.979c-2.986,0.016 -5.365,-1.583 -5.388,-5.783l-0.013,-2.155c-0.022,-4.2 2.339,-5.823 5.327,-5.84c2.986,-0.015 5.367,1.583 5.39,5.782l0.013,2.156c0.022,4.199 -2.342,5.824 -5.329,5.84" style="fill:#fff;fill-rule:nonzero;"/><path d="M267.593,28.769l-36.81,84.344l-15.629,0.083l-37.712,-83.945l21.559,-0.115l23.801,52.984l23.234,-53.236l21.557,-0.115Z" style="fill:#e3051e;fill-rule:nonzero;"/><path d="M323.715,70.542c-0.035,-6.33 -2.286,-11.709 -6.757,-16.133c-4.473,-4.423 -9.876,-6.618 -16.205,-6.585c-6.251,0.033 -11.609,2.286 -16.072,6.757c-4.465,4.473 -6.679,9.876 -6.646,16.206c0.035,6.332 2.306,11.707 6.819,16.131c4.51,4.424 9.893,6.619 16.144,6.586c6.329,-0.034 11.707,-2.287 16.133,-6.759c4.424,-4.472 6.617,-9.871 6.584,-16.203m19.232,-0.104c0.062,11.621 -3.992,21.56 -12.16,29.818c-8.173,8.258 -18.068,12.417 -29.687,12.48c-11.621,0.062 -21.559,-3.99 -29.816,-12.161c-8.261,-8.171 -12.419,-18.064 -12.481,-29.685c-0.062,-11.619 3.99,-21.559 12.162,-29.818c8.169,-8.257 18.063,-12.418 29.685,-12.48c11.619,-0.063 21.557,3.992 29.818,12.161c8.257,8.171 12.417,18.066 12.479,29.685" style="fill:#e3051e;fill-rule:nonzero;"/><path d="M420.104,112.098l-72.124,0.386l-0.45,-84.144l19.234,-0.103l0.347,64.912l52.89,-0.283l0.103,19.232Z" style="fill:#e3051e;fill-rule:nonzero;"/><path d="M475.654,46.886l-29.45,0.158l0.347,64.912l-19.231,0.103l-0.35,-64.912l-29.45,0.157l-0.103,-19.231l78.134,-0.419l0.103,19.232Z" style="fill:#e3051e;fill-rule:nonzero;"/><path d="M480.357,27.628l19.235,-0.103l0.45,84.144l-19.234,0.103l-0.451,-84.144Z" style="fill:#fff;"/><path d="M576.974,111.258l-30.053,0.161c-11.619,0.062 -21.559,-3.991 -29.818,-12.161c-8.257,-8.17 -12.418,-18.065 -12.479,-29.686c-0.062,-11.619 3.99,-21.558 12.16,-29.817c8.17,-8.257 18.065,-12.418 29.685,-12.48l30.052,-0.161l0.103,19.232l-30.052,0.161c-6.332,0.034 -11.708,2.287 -16.13,6.758c-4.426,4.472 -6.621,9.874 -6.586,16.204c0.033,6.332 2.286,11.707 6.759,16.132c4.471,4.424 9.87,6.619 16.201,6.586l30.053,-0.161l0.105,19.232Z" style="fill:#fff;fill-rule:nonzero;"/></g></svg>